<svg width="60" height="60" viewBox="0 0 60 60" fill="none" xmlns="http://www.w3.org/2000/svg">
<path d="M53.3335 10H6.66683C5.78277 10 4.93493 10.3512 4.30981 10.9763C3.68469 11.6014 3.3335 12.4493 3.3335 13.3333V46.6667C3.3335 47.5507 3.68469 48.3986 4.30981 49.0237C4.93493 49.6488 5.78277 50 6.66683 50H31.6668L32.6168 48.8333L34.1668 46.9333L34.0168 46.6667H6.66683V13.3333H53.3335V27.6C54.5997 28.4197 55.7253 29.4383 56.6668 30.6167V13.3333C56.6668 12.4493 56.3156 11.6014 55.6905 10.9763C55.0654 10.3512 54.2176 10 53.3335 10Z" fill="#1BB2DE"/>
<path d="M11.6665 20H39.9998V22.6667H11.6665V20Z" fill="#1BB2DE"/>
<path d="M11.6665 26.6665H29.9998V29.3332H11.6665V26.6665Z" fill="#1BB2DE"/>
<path d="M11.6665 38.3335H28.3332V41.0002H11.6665V38.3335Z" fill="#1BB2DE"/>
<path d="M45.766 28.7171C43.6332 28.7002 41.5449 29.327 39.774 30.5158C38.0031 31.7045 36.6321 33.3998 35.8399 35.3801C35.0478 37.3604 34.8715 39.5336 35.3341 41.6156C35.7966 43.6977 36.8765 45.5918 38.4326 47.0505L35.1993 51.0005L36.6993 57.0171L42.7993 49.5838C44.7302 50.1547 46.7851 50.1547 48.716 49.5838L54.816 57.0171L56.316 51.0005L53.0826 47.0505C54.6387 45.5918 55.7186 43.6977 56.1812 41.6156C56.6437 39.5336 56.4674 37.3604 55.6753 35.3801C54.8832 33.3998 53.5121 31.7045 51.7412 30.5158C49.9704 29.327 47.8821 28.7002 45.7493 28.7171H45.766ZM45.766 46.5171C44.3497 46.4974 42.9708 46.0594 41.8027 45.2582C40.6347 44.457 39.7295 43.3284 39.2012 42.0142C38.6728 40.7 38.5447 39.2589 38.8331 37.8721C39.1214 36.4853 39.8133 35.2147 40.8218 34.2201C41.8303 33.2255 43.1103 32.5512 44.5009 32.282C45.8916 32.0129 47.3307 32.1609 48.6375 32.7074C49.9443 33.2539 51.0603 34.1745 51.8453 35.3535C52.6303 36.5326 53.0492 37.9174 53.0493 39.3338C53.0317 41.2508 52.2555 43.0828 50.8906 44.429C49.5256 45.7752 47.6831 46.526 45.766 46.5171Z" fill="#1BB2DE"/>
</svg>
