<svg width="60" height="60" viewBox="0 0 60 60" fill="none" xmlns="http://www.w3.org/2000/svg">
<path d="M17.4999 15C17.0055 15 16.5221 15.1467 16.111 15.4214C15.6999 15.6961 15.3794 16.0865 15.1902 16.5433C15.001 17.0001 14.9515 17.5028 15.048 17.9878C15.1444 18.4727 15.3825 18.9182 15.7322 19.2678C16.0818 19.6174 16.5272 19.8555 17.0122 19.952C17.4971 20.0485 17.9998 19.999 18.4566 19.8097C18.9134 19.6205 19.3039 19.3001 19.5786 18.889C19.8533 18.4778 19.9999 17.9945 19.9999 17.5C19.9999 16.837 19.7365 16.2011 19.2677 15.7323C18.7988 15.2634 18.163 15 17.4999 15ZM54.2749 29.45L30.5749 5.80004C30.3418 5.5487 30.0595 5.34798 29.7456 5.21036C29.4316 5.07273 29.0927 5.00114 28.7499 5.00004H13.7499C13.4209 4.99814 13.0947 5.0612 12.7902 5.18561C12.4856 5.31003 12.2085 5.49334 11.9749 5.72504L5.72492 11.95C5.49322 12.1836 5.3099 12.4607 5.18549 12.7653C5.06108 13.0699 4.99802 13.396 4.99992 13.725V28.725C5.00913 29.387 5.26809 30.021 5.72492 30.5L29.4499 54.25C29.929 54.7069 30.563 54.9658 31.2249 54.975C31.5539 54.9769 31.8801 54.9139 32.1847 54.7895C32.4893 54.6651 32.7663 54.4817 32.9999 54.25L54.2749 32.975C54.5066 32.7414 54.6899 32.4644 54.8144 32.1598C54.9388 31.8552 55.0018 31.5291 54.9999 31.2C54.9845 30.5468 54.726 29.9228 54.2749 29.45ZM31.2249 48.975L9.99992 27.725V14.75L14.7499 10H27.6999L48.9499 31.225L31.2249 48.975Z" fill="#1BB2DE"/>
</svg>
