<svg width="60" height="60" viewBox="0 0 60 60" fill="none" xmlns="http://www.w3.org/2000/svg">
<path d="M50.3624 20.6749L54.2699 16.7674L50.7349 13.2324L46.4649 17.4999C43.8399 15.9249 40.7799 14.9999 37.4999 14.9999C27.8524 14.9999 19.9999 22.8499 19.9999 32.4999C19.9999 42.1499 27.8524 49.9999 37.4999 49.9999C47.1474 49.9999 54.9999 42.1499 54.9999 32.4999C54.9979 28.115 53.3418 23.8922 50.3624 20.6749ZM37.4999 44.9999C30.6074 44.9999 24.9999 39.3924 24.9999 32.4999C24.9999 25.6074 30.6074 19.9999 37.4999 19.9999C44.3924 19.9999 49.9999 25.6074 49.9999 32.4999C49.9999 39.3924 44.3924 44.9999 37.4999 44.9999Z" fill="#1BB2DE"/>
<path d="M34.9999 25H39.9999V35H34.9999V25ZM32.4999 7.5H42.4999V12.5H32.4999V7.5ZM7.49988 20H17.4999V25H7.49988V20ZM7.49988 40H17.4999V45H7.49988V40ZM4.99988 30H14.9749V35H4.99988V30Z" fill="#1BB2DE"/>
</svg>
