<svg width="154" height="61" viewBox="0 0 154 61" fill="none" xmlns="http://www.w3.org/2000/svg">
<path fill-rule="evenodd" clip-rule="evenodd" d="M27.6573 4.51855H0V61H27.6573V55.3519H5.53145V10.1667H27.6573V4.51855Z" fill="#F0CE76"/>
<path fill-rule="evenodd" clip-rule="evenodd" d="M27.6572 4.51855H55.3145V61H27.6572V55.3519H49.783V10.1667H27.6572V4.51855Z" fill="#F0CE76"/>
<path d="M5.53149 10.167H27.6573V55.3522H5.53149V10.167Z" fill="#F0CE76"/>
<path d="M8.85034 13.5557H25.9978V31.0649H8.85034V13.5557Z" fill="#F8F8F8"/>
<path d="M8.85034 34.4541H25.9978V51.9633H8.85034V34.4541Z" fill="#F8F8F8"/>
<path d="M49.7832 10.167H27.6574V55.3522H49.7832V10.167Z" fill="#F0CE76"/>
<path d="M46.4641 13.5557H29.3166V31.0649H46.4641V13.5557Z" fill="#F8F8F8"/>
<path d="M46.4641 34.4541H29.3166V51.9633H46.4641V34.4541Z" fill="#F8F8F8"/>
<path fill-rule="evenodd" clip-rule="evenodd" d="M39.7158 0H41.3753C41.3753 5.30296 45.5853 9.60185 50.7787 9.60185V11.2963V12.9907C45.5853 12.9907 41.3753 17.2896 41.3753 22.5926H39.7158V11.2963V0Z" fill="#00D9E0"/>
<path fill-rule="evenodd" clip-rule="evenodd" d="M39.7158 0H38.0564C38.0564 5.30296 33.8463 9.60185 28.6529 9.60185V11.2963V12.9907C33.8463 12.9907 38.0564 17.2896 38.0564 22.5926H39.7158V11.2963V0Z" fill="#55FBFF"/>
<path fill-rule="evenodd" clip-rule="evenodd" d="M48.6768 19.0908H50.3362C50.3362 24.3938 54.5463 28.6927 59.7397 28.6927V30.3871V32.0816C54.5463 32.0816 50.3362 36.3805 50.3362 41.6834H48.6768V30.3871V19.0908Z" fill="#00D9E0"/>
<path fill-rule="evenodd" clip-rule="evenodd" d="M48.6768 19.0908H47.0173C47.0173 24.3938 42.8073 28.6927 37.6139 28.6927V30.3871V32.0816C42.8073 32.0816 47.0173 36.3805 47.0173 41.6834H48.6768V30.3871V19.0908Z" fill="#55FBFF"/>
<path d="M78.0217 27.8069H70.2269L68.8656 32.3077H62.7886L71.4423 8.21484H76.7901L85.5086 32.3077H79.3991L78.0217 27.8069ZM71.5881 23.3225H76.6604L74.1162 14.9661L71.5881 23.3225Z" fill="white"/>
<path d="M92.7647 24.1334V32.3077H87.0766V8.21484H96.492C98.2962 8.21484 99.8897 8.55682 101.273 9.24078C102.666 9.9137 103.741 10.879 104.497 12.1366C105.265 13.3831 105.648 14.8007 105.648 16.3892C105.648 18.7389 104.822 20.6198 103.169 22.0318C101.526 23.4329 99.2685 24.1334 96.3947 24.1334H92.7647ZM92.7647 19.649H96.492C97.594 19.649 98.4312 19.3677 99.0038 18.8051C99.5872 18.2425 99.8789 17.4482 99.8789 16.4223C99.8789 15.2971 99.5818 14.398 98.9876 13.7251C98.3934 13.0522 97.5831 12.7102 96.5568 12.6992H92.7647V19.649Z" fill="white"/>
<path d="M127.052 12.6992H119.97V32.3077H114.282V12.6992H107.33V8.21484H127.052V12.6992Z" fill="white"/>
<path d="M84.6011 47.6429C84.6011 49.9926 84.1743 52.0721 83.3209 53.8812C82.4674 55.6904 81.252 57.0859 79.6746 58.0677C78.1081 59.0385 76.3201 59.5239 74.3106 59.5239C72.3012 59.5239 70.5186 59.055 68.9628 58.1173C67.4071 57.1686 66.1917 55.8173 65.3166 54.0632C64.4523 52.3092 63.9986 50.296 63.9554 48.0235V46.6666C63.9554 44.3058 64.3767 42.2264 65.2194 40.4283C66.0729 38.6191 67.2883 37.2236 68.8656 36.2418C70.4537 35.26 72.2579 34.7691 74.2782 34.7691C76.2769 34.7691 78.0595 35.2545 79.626 36.2252C81.1925 37.196 82.4079 38.5805 83.2722 40.3786C84.1473 42.1657 84.5903 44.2176 84.6011 46.5342V47.6429ZM78.8157 46.6335C78.8157 44.2397 78.4214 42.425 77.6327 41.1894C76.8549 39.9429 75.7367 39.3196 74.2782 39.3196C71.4261 39.3196 69.919 41.5038 69.7569 45.8723L69.7407 47.6429C69.7407 50.0036 70.1242 51.8183 70.8913 53.087C71.6583 54.3556 72.7981 54.9899 74.3106 54.9899C75.7475 54.9899 76.8549 54.3666 77.6327 53.12C78.4106 51.8735 78.8049 50.0809 78.8157 47.7422V46.6335Z" fill="white"/>
<path d="M95.7141 49.6617H93.024V59.1929H87.3359V35.1H93.024V44.4162H95.2118L99.7493 35.1H106.637L100.154 46.2198L107.447 59.1929H100.722L95.7141 49.6617Z" fill="white"/>
<path d="M128.413 59.1929H122.757V49.1321H114.379V59.1929H108.691V35.1H114.379V44.6644H122.757V35.1H128.413V59.1929Z" fill="white"/>
<path d="M145.554 54.692H137.759L136.398 59.1929H130.321L138.975 35.1H144.323L153.041 59.1929H146.932L145.554 54.692ZM139.121 50.2077H144.193L141.649 41.8513L139.121 50.2077Z" fill="white"/>
</svg>
