<svg width="632" height="353" viewBox="0 0 632 353" fill="none" xmlns="http://www.w3.org/2000/svg">
<g clip-path="url(#clip0_5121_3409)">
<path fill-rule="evenodd" clip-rule="evenodd" d="M657.041 0.000623355L24 360.704L13.0283 353.731L646.069 -6.97239L657.041 0.000623355Z" fill="white"/>
<path fill-rule="evenodd" clip-rule="evenodd" d="M693.966 23.5833L60.7952 384.058L49.8193 377.092L682.99 16.617L693.966 23.5833Z" fill="white"/>
<path fill-rule="evenodd" clip-rule="evenodd" d="M730.761 46.9368L97.5897 407.412L86.6138 400.445L719.785 39.9705L730.761 46.9368Z" fill="white"/>
<path fill-rule="evenodd" clip-rule="evenodd" d="M767.555 70.2903L134.384 430.765L123.408 423.799L756.579 63.324L767.555 70.2903Z" fill="white"/>
<path fill-rule="evenodd" clip-rule="evenodd" d="M804.351 93.6448L171.18 454.12L160.204 447.153L793.375 86.6785L804.351 93.6448Z" fill="white"/>
<path fill-rule="evenodd" clip-rule="evenodd" d="M825.171 123L192 483.475L181.024 476.509L814.195 116.034L825.171 123Z" fill="white"/>
<path fill-rule="evenodd" clip-rule="evenodd" d="M835.171 165L202 525.475L191.024 518.509L824.195 158.034L835.171 165Z" fill="white"/>
<path fill-rule="evenodd" clip-rule="evenodd" d="M848.171 204L215 564.475L204.024 557.509L837.195 197.034L848.171 204Z" fill="white"/>
</g>
<defs>
<clipPath id="clip0_5121_3409">
<rect width="632" height="354" fill="white"/>
</clipPath>
</defs>
</svg>
