<svg width="108" height="42" viewBox="0 0 108 42" fill="none" xmlns="http://www.w3.org/2000/svg">
<path fill-rule="evenodd" clip-rule="evenodd" d="M19.342 3.11111H0V42H19.342V38.1111H3.8684V7H19.342V3.11111Z" fill="#F0CE76"/>
<path fill-rule="evenodd" clip-rule="evenodd" d="M19.3421 3.11111H38.6841V42H19.3421V38.1111H34.8157V7H19.3421V3.11111Z" fill="#F0CE76"/>
<path d="M3.86841 7H19.342V38.1111H3.86841V7Z" fill="#F0CE76"/>
<path d="M6.18945 9.33334H18.1815V21.3889H6.18945V9.33334Z" fill="#F8F8F8"/>
<path d="M6.18945 23.7222H18.1815V35.7777H6.18945V23.7222Z" fill="#F8F8F8"/>
<path d="M34.8157 7H19.3421V38.1111H34.8157V7Z" fill="#F0CE76"/>
<path d="M32.4946 9.33334H20.5026V21.3889H32.4946V9.33334Z" fill="#F8F8F8"/>
<path d="M32.4946 23.7222H20.5026V35.7777H32.4946V23.7222Z" fill="#F8F8F8"/>
<path fill-rule="evenodd" clip-rule="evenodd" d="M27.7751 0H28.9357C28.9357 3.65122 31.8799 6.61111 35.5119 6.61111V7.77778V8.94444C31.8799 8.94444 28.9357 11.9043 28.9357 15.5556H27.7751V7.77778V0Z" fill="#00D9E0"/>
<path fill-rule="evenodd" clip-rule="evenodd" d="M27.7751 0H26.6146C26.6146 3.65122 23.6703 6.61111 20.0383 6.61111V7.77778V8.94444C23.6703 8.94444 26.6146 11.9043 26.6146 15.5556H27.7751V7.77778V0Z" fill="#55FBFF"/>
<path fill-rule="evenodd" clip-rule="evenodd" d="M34.042 13.1444H35.2025C35.2025 16.7957 38.1468 19.7556 41.7788 19.7556V20.9222V22.0889C38.1468 22.0889 35.2025 25.0488 35.2025 28.7H34.042V20.9222V13.1444Z" fill="#00D9E0"/>
<path fill-rule="evenodd" clip-rule="evenodd" d="M34.042 13.1444H32.8815C32.8815 16.7957 29.9372 19.7556 26.3052 19.7556V20.9222V22.0889C29.9372 22.0889 32.8815 25.0488 32.8815 28.7H34.042V20.9222V13.1444Z" fill="#55FBFF"/>
<path d="M54.5643 19.1455H49.1131L48.1611 22.2444H43.9111L49.9631 5.6559H53.703L59.8003 22.2444H55.5277L54.5643 19.1455ZM50.0651 16.0579H53.6124L51.833 10.3043L50.0651 16.0579Z" fill="#02303F"/>
<path d="M64.8749 16.6162V22.2444H60.8969V5.6559H67.4815C68.7433 5.6559 69.8577 5.89136 70.8248 6.36228C71.7994 6.8256 72.5512 7.49021 73.0801 8.35609C73.6165 9.21438 73.8848 10.1904 73.8848 11.2842C73.8848 12.902 73.3068 14.197 72.1508 15.1692C71.0023 16.1339 69.4232 16.6162 67.4135 16.6162H64.8749ZM64.8749 13.5286H67.4815C68.2521 13.5286 68.8377 13.3349 69.2381 12.9476C69.6461 12.5602 69.8501 12.0133 69.8501 11.3069C69.8501 10.5322 69.6424 9.91317 69.2268 9.44984C68.8113 8.98652 68.2446 8.75106 67.5268 8.74346H64.8749V13.5286Z" fill="#02303F"/>
<path d="M88.8532 8.74346H83.9006V22.2444H79.9226V8.74346H75.0607V5.6559H88.8532V8.74346Z" fill="#02303F"/>
<path d="M59.1656 32.8031C59.1656 34.4209 58.8672 35.8527 58.2703 37.0983C57.6734 38.344 56.8234 39.3048 55.7203 39.9808C54.6248 40.6492 53.3744 40.9834 51.969 40.9834C50.5637 40.9834 49.3171 40.6606 48.2291 40.015C47.1411 39.3618 46.2911 38.4313 45.6791 37.2237C45.0747 36.016 44.7573 34.6298 44.7271 33.0651V32.1309C44.7271 30.5054 45.0218 29.0737 45.6111 27.8356C46.208 26.59 47.058 25.6291 48.1611 24.9531C49.2717 24.2771 50.5335 23.9391 51.9464 23.9391C53.3441 23.9391 54.5908 24.2733 55.6863 24.9418C56.7819 25.6102 57.6319 26.5634 58.2363 27.8015C58.8483 29.0319 59.1581 30.4447 59.1656 32.0397V32.8031ZM55.1197 32.1081C55.1197 30.4599 54.8439 29.2104 54.2924 28.3597C53.7484 27.5014 52.9664 27.0723 51.9464 27.0723C49.9517 27.0723 48.8977 28.5762 48.7844 31.584L48.7731 32.8031C48.7731 34.4285 49.0413 35.678 49.5777 36.5515C50.1142 37.4249 50.9113 37.8617 51.969 37.8617C52.9739 37.8617 53.7484 37.4325 54.2924 36.5742C54.8363 35.7159 55.1121 34.4817 55.1197 32.8714V32.1081Z" fill="#02303F"/>
<path d="M66.9375 34.1931H65.0562V40.7556H61.0782V24.167H65.0562V30.5814H66.5862L69.7595 24.167H74.5761L70.0428 31.8233L75.1427 40.7556H70.4395L66.9375 34.1931Z" fill="#02303F"/>
<path d="M89.8052 40.7556H85.8499V33.8285H79.9906V40.7556H76.0127V24.167H79.9906V30.7523H85.8499V24.167H89.8052V40.7556Z" fill="#02303F"/>
<path d="M101.793 37.6566H96.3417L95.3897 40.7556H91.1398L97.1917 24.167H100.932L107.029 40.7556H102.756L101.793 37.6566ZM97.2937 34.569H100.841L99.0617 28.8154L97.2937 34.569Z" fill="#02303F"/>
</svg>
