<svg width="95" height="94" viewBox="0 0 95 94" fill="none" xmlns="http://www.w3.org/2000/svg">
<path d="M91.5312 44.6562H80.75L87.3125 38.0938C88.25 37.1562 88.25 35.75 87.3125 34.8125C86.375 33.875 84.9688 33.875 84.0312 34.8125L74.1875 44.6562H66.8438L70.75 40.75C71.6875 39.8125 71.6875 38.4062 70.75 37.4688C69.8125 36.5312 68.4062 36.5312 67.4688 37.4688L60.2812 44.6562H52.7812L66.8438 30.5938H80.75C82 30.5938 83.0938 29.5 83.0938 28.25C83.0938 27 82 25.9062 80.75 25.9062H71.5312L80.125 17.3125C81.0625 16.375 81.0625 14.9687 80.125 14.0312C79.1875 13.0937 77.7812 13.0937 76.8438 14.0312L68.25 22.625V13.4062C68.0938 12 67.1562 11.0625 65.75 11.0625C64.3438 11.0625 63.4062 12.1562 63.4062 13.4062V27.3125L49.3438 41.375V33.875L56.5312 26.6875C57.4687 25.75 57.4687 24.3438 56.5312 23.4062C55.5937 22.4688 54.1875 22.4688 53.25 23.4062L49.3438 27.3125V19.9688L59.1875 10.125C60.125 9.1875 60.125 7.78125 59.1875 6.84375C58.25 5.90625 56.8438 5.90625 55.9062 6.84375L49.3438 13.4062V2.46875C49.3438 1.21875 48.25 0.125 47 0.125C45.75 0.125 44.6562 1.21875 44.6562 2.46875V13.25L38.0938 6.6875C37.1562 5.75 35.75 5.75 34.8125 6.6875C33.875 7.625 33.875 9.03125 34.8125 9.96875L44.6562 19.8125V27.1562L40.75 23.25C39.8125 22.3125 38.4062 22.3125 37.4688 23.25C36.5312 24.1875 36.5312 25.5938 37.4688 26.5312L44.6562 33.7188V41.2188L30.5938 27.1562V13.25C30.5938 12 29.5 11.0625 28.25 11.0625C27 11.0625 25.9062 12.1562 25.9062 13.4062V22.625L17.3125 14.0312C16.375 13.0937 14.9687 13.0937 14.0312 14.0312C13.0937 14.9687 13.0937 16.375 14.0312 17.3125L22.625 25.9062H13.4062C12 25.9062 11.0625 26.8438 11.0625 28.25C11.0625 29.6562 12.1562 30.5938 13.4062 30.5938H27.3125L41.375 44.6562H33.875L26.6875 37.4688C25.75 36.5312 24.3438 36.5312 23.4062 37.4688C22.4688 38.4062 22.4688 39.8125 23.4062 40.75L27.3125 44.6562H19.9688L10.125 34.8125C9.1875 33.875 7.78125 33.875 6.84375 34.8125C5.90625 35.75 5.90625 37.1562 6.84375 38.0938L13.4062 44.6562H2.46875C1.21875 44.6562 0.125 45.75 0.125 47C0.125 48.25 1.21875 49.3438 2.46875 49.3438H13.25L6.6875 55.9062C5.75 56.8438 5.75 58.25 6.6875 59.1875C7.15625 59.6562 7.78125 59.8125 8.40625 59.8125C9.03125 59.8125 9.65625 59.6562 10.125 59.1875L19.9688 49.3438H27.3125L23.25 53.25C22.3125 54.1875 22.3125 55.5937 23.25 56.5312C23.7187 57 24.3438 57.1562 24.9688 57.1562C25.5938 57.1562 26.2188 57 26.6875 56.5312L33.875 49.3438H41.375L27.3125 63.4062H13.4062C12 63.4062 11.0625 64.5 11.0625 65.75C11.0625 67 12.1562 68.0938 13.4062 68.0938H22.625L14.0312 76.6875C13.0937 77.625 13.0937 79.0312 14.0312 79.9688C14.5 80.4375 15.125 80.5938 15.75 80.5938C16.375 80.5938 17 80.4375 17.4688 79.9688L26.0625 71.375V80.5938C26.0625 81.8438 27.1562 82.9375 28.4062 82.9375C29.6562 82.9375 30.75 81.8438 30.75 80.5938V66.6875L44.8125 52.625V60.125L37.4688 67.3125C36.5312 68.25 36.5312 69.6562 37.4688 70.5938C37.9375 71.0625 38.5625 71.2188 39.1875 71.2188C39.8125 71.2188 40.4375 71.0625 40.9062 70.5938L44.8125 66.6875V74.0312L34.9688 83.875C34.0312 84.8125 34.0312 86.2188 34.9688 87.1562C35.4375 87.625 36.0625 87.7812 36.6875 87.7812C37.3125 87.7812 37.9375 87.625 38.4062 87.1562L44.9688 80.5938V91.375C44.9688 92.625 46.0625 93.7188 47.3125 93.7188C48.5625 93.7188 49.6562 92.625 49.6562 91.375V80.5938L56.2188 87.1562C56.6875 87.625 57.3125 87.7812 57.9375 87.7812C58.5625 87.7812 59.1875 87.625 59.6562 87.1562C60.5937 86.2188 60.5937 84.8125 59.6562 83.875L49.8125 74.0312V66.6875L53.7188 70.5938C54.1875 71.0625 54.8125 71.2188 55.4375 71.2188C56.0625 71.2188 56.6875 71.0625 57.1562 70.5938C58.0938 69.6562 58.0938 68.25 57.1562 67.3125L49.9688 60.125V52.625L64.0313 66.6875V80.5938C64.0313 81.8438 65.125 82.9375 66.375 82.9375C67.625 82.9375 68.7188 81.8438 68.7188 80.5938V71.375L77.3125 79.9688C77.7812 80.4375 78.4062 80.5938 79.0312 80.5938C79.6562 80.5938 80.2812 80.4375 80.75 79.9688C81.6875 79.0312 81.6875 77.625 80.75 76.6875L72.1562 68.0938H81.375C82.625 68.0938 83.7188 67 83.7188 65.75C83.7188 64.5 82.625 63.4062 81.375 63.4062H67.4688L53.4062 49.3438H60.9063L68.0938 56.5312C68.5625 57 69.1875 57.1562 69.8125 57.1562C70.4375 57.1562 71.0625 57 71.5312 56.5312C72.4688 55.5937 72.4688 54.1875 71.5312 53.25L67.625 49.3438H74.9688L84.8125 59.1875C85.2812 59.6562 85.9062 59.8125 86.5312 59.8125C87.1562 59.8125 87.7812 59.6562 88.25 59.1875C89.1875 58.25 89.1875 56.8438 88.25 55.9062L81.6875 49.3438H92.4688C93.7188 49.3438 94.8125 48.25 94.8125 47C94.8125 45.75 92.7812 44.6562 91.5312 44.6562Z" fill="#75D6FF"/>
</svg>
