<svg width="160" height="162" viewBox="0 0 160 162" fill="none" xmlns="http://www.w3.org/2000/svg">
<path d="M47.5938 6.41224L63.6305 16.1759L73.3247 2.74912e-07L85.3522 14.4915L99.7238 2.36975L106.439 20.0187L123.93 13.2647L124.605 32.1585L143.321 31.5041L137.882 49.5954L155.795 55.1116L144.832 70.4399L160 81.5289L144.701 92.433L155.481 107.893L137.504 113.192L142.727 131.348L124.02 130.466L123.12 149.35L105.71 142.385L98.7855 159.951L84.5594 147.656L72.3601 162L62.8593 145.708L46.7075 155.276L42.9616 136.752L24.6074 140.507L27.0223 121.759L8.45476 119.295L16.7688 102.354L-3.5219e-07 93.9363L13.3122 80.6388L0.159303 67.1806L17.0271 58.9673L8.91541 41.9268L27.5109 39.6878L25.3194 20.9116L43.6276 24.8894L47.5938 6.41224Z" fill="#1BB2DE"/>
<path d="M66.0301 72.7227L65.9407 72.5156C65.6031 71.7331 65.4042 70.9648 65.344 70.2108C65.281 69.4503 65.3583 68.7345 65.5757 68.0635C65.7931 67.3924 66.156 66.7874 66.6644 66.2482C67.1699 65.7025 67.827 65.2552 68.6358 64.9062C69.4446 64.5572 70.2242 64.3846 70.9746 64.3884C71.7222 64.3856 72.4146 64.5353 73.052 64.8375C73.6959 65.1368 74.2729 65.5703 74.7831 66.138C75.2904 66.699 75.7128 67.3708 76.0505 68.1533L76.1398 68.3604C76.4746 69.1363 76.6735 69.9046 76.7365 70.6652C76.7967 71.4192 76.7162 72.1364 76.495 72.8168C76.2775 73.4878 75.9146 74.0929 75.4063 74.632C74.898 75.1711 74.2394 75.6152 73.4306 75.9642C72.6218 76.3132 71.8437 76.489 71.0961 76.4918C70.3551 76.4918 69.6626 76.3421 69.0187 76.0428C68.3785 75.734 67.8048 75.2991 67.2975 74.738C66.7873 74.1704 66.3649 73.4986 66.0301 72.7227ZM68.7813 71.2899L68.8707 71.497C69.0636 71.9441 69.2832 72.3447 69.5295 72.6986C69.7758 73.0525 70.0483 73.3405 70.3469 73.5626C70.6493 73.7753 70.9773 73.9029 71.331 73.9452C71.6847 73.9876 72.0654 73.9209 72.4731 73.745C72.8676 73.5747 73.1708 73.3464 73.3826 73.06C73.5944 72.7736 73.7233 72.4489 73.7695 72.0858C73.8128 71.7161 73.7901 71.3203 73.7017 70.8983C73.6197 70.4735 73.4823 70.0375 73.2894 69.5904L73.2 69.3832C73.0127 68.9493 72.7941 68.56 72.5441 68.2155C72.2978 67.8616 72.022 67.575 71.7168 67.3557C71.4153 67.127 71.0863 66.9882 70.7298 66.9393C70.3733 66.8903 69.9945 66.9524 69.5934 67.1254C69.1923 67.2985 68.8872 67.5315 68.6783 67.8245C68.4759 68.1146 68.3511 68.4492 68.3041 68.8283C68.2608 69.1979 68.2834 69.5938 68.3719 70.0158C68.4576 70.4312 68.594 70.8559 68.7813 71.2899ZM80.6948 59.9368L85.2997 70.6088L82.4492 71.8387L77.8444 61.1668L80.6948 59.9368ZM84.1272 58.4558L85.0762 60.6553L75.4103 64.826L74.4613 62.6266L84.1272 58.4558ZM47.9605 112.405L48.9181 114.624L39.0944 118.863L38.2772 116.969L40.7736 109.984C41.0163 109.263 41.1873 108.647 41.2867 108.136C41.3832 107.619 41.4225 107.177 41.4047 106.81C41.3906 106.434 41.3211 106.101 41.1963 105.812C41.0091 105.378 40.7764 105.038 40.4984 104.791C40.2176 104.538 39.8989 104.387 39.5424 104.338C39.1924 104.286 38.8136 104.348 38.4059 104.524C37.972 104.711 37.6426 104.978 37.4177 105.325C37.1995 105.669 37.089 106.063 37.0864 106.509C37.0903 106.952 37.1944 107.41 37.3986 107.884L34.5482 109.114C34.1793 108.259 34.0456 107.388 34.1468 106.502C34.2452 105.61 34.5752 104.793 35.1366 104.051C35.6952 103.303 36.4841 102.709 37.5033 102.269C38.5093 101.835 39.4285 101.634 40.2608 101.665C41.0968 101.686 41.8243 101.926 42.4432 102.384C43.0659 102.833 43.5588 103.478 43.922 104.32C44.1263 104.793 44.2507 105.29 44.2952 105.809C44.3369 106.321 44.3129 106.862 44.223 107.431C44.137 107.991 43.9946 108.582 43.7958 109.206C43.597 109.83 43.3626 110.489 43.0926 111.183L41.8059 115.061L47.9605 112.405ZM55.5749 103.995L53.0723 104.432L50.7501 96.7993L58.8182 93.3179L59.8098 95.6161L54.0793 98.0887L55.0989 101.428C55.2414 101.234 55.4796 100.99 55.8136 100.698C56.1448 100.399 56.5505 100.146 57.0305 99.9391C57.7275 99.6384 58.3924 99.4802 59.0252 99.4645C59.658 99.4488 60.2512 99.5673 60.8047 99.8198C61.3649 100.069 61.8726 100.451 62.3281 100.964C62.7835 101.477 63.1744 102.112 63.5007 102.868C63.7759 103.506 63.9397 104.157 63.9921 104.821C64.0417 105.478 63.9638 106.12 63.7585 106.747C63.5503 107.367 63.1991 107.936 62.7048 108.453C62.2105 108.971 61.5491 109.408 60.7206 109.766C60.1025 110.032 59.4645 110.198 58.8064 110.264C58.1549 110.327 57.5209 110.277 56.9046 110.114C56.2949 109.948 55.7412 109.668 55.2438 109.274C54.75 108.871 54.3533 108.34 54.0536 107.682L56.8745 106.465C57.0898 106.855 57.3468 107.162 57.6455 107.384C57.9478 107.596 58.2777 107.719 58.6352 107.752C58.9926 107.785 59.3652 107.718 59.7532 107.551C60.1148 107.395 60.3941 107.192 60.591 106.943C60.7878 106.695 60.9127 106.415 60.9655 106.103C61.0155 105.785 61.0057 105.446 60.9362 105.086C60.8704 104.717 60.7538 104.338 60.5864 103.95C60.419 103.562 60.2212 103.23 59.9929 102.955C59.7647 102.679 59.5056 102.467 59.2156 102.319C58.9256 102.171 58.6057 102.099 58.2559 102.101C57.9127 102.101 57.5471 102.185 57.1591 102.352C56.6331 102.579 56.2609 102.837 56.0425 103.127C55.8307 103.413 55.6748 103.702 55.5749 103.995ZM75.068 96.9763L76.0298 99.2054L65.6833 103.67L64.8005 102.003L66.689 89.9218L68.9477 88.9472L68.2678 94.0958L67.4043 100.283L75.068 96.9763ZM69.5592 88.6833L75.7558 103.044L72.9152 104.27L66.7186 89.909L69.5592 88.6833ZM78.7731 93.9853L76.2705 94.4217L73.9483 86.7894L82.0164 83.3081L83.008 85.6062L77.2775 88.0789L78.2971 91.4179C78.4395 91.2239 78.6778 90.9807 79.0118 90.6883C79.343 90.3894 79.7486 90.1364 80.2286 89.9293C80.9256 89.6285 81.5905 89.4703 82.2234 89.4547C82.8562 89.439 83.4494 89.5574 84.0029 89.81C84.563 90.0597 85.0708 90.4411 85.5263 90.9544C85.9817 91.4676 86.3726 92.1023 86.6989 92.8585C86.9741 93.4963 87.1379 94.1471 87.1903 94.8109C87.2399 95.4681 87.162 96.11 86.9567 96.7368C86.7485 97.357 86.3973 97.9258 85.903 98.4433C85.4087 98.9608 84.7473 99.3983 83.9188 99.7558C83.3007 100.022 82.6626 100.189 82.0045 100.254C81.353 100.317 80.7191 100.267 80.1028 100.104C79.493 99.9378 78.9394 99.658 78.4419 99.2643C77.9482 98.8612 77.5515 98.3304 77.2518 97.6719L80.0726 96.4547C80.288 96.8454 80.545 97.1518 80.8436 97.3739C81.146 97.5866 81.4759 97.7095 81.8333 97.7424C82.1907 97.7754 82.5634 97.7082 82.9514 97.5408C83.313 97.3848 83.5923 97.1824 83.7891 96.9336C83.986 96.6849 84.1108 96.4048 84.1637 96.0934C84.2137 95.7755 84.2039 95.4365 84.1344 95.0765C84.0686 94.7071 83.952 94.3285 83.7846 93.9405C83.6172 93.5526 83.4194 93.2206 83.1911 92.9447C82.9629 92.6688 82.7037 92.457 82.4138 92.3091C82.1238 92.1612 81.8039 92.0887 81.4541 92.0914C81.1108 92.0913 80.7452 92.175 80.3573 92.3424C79.8313 92.5694 79.459 92.8275 79.2407 93.1167C79.0288 93.4031 78.873 93.6926 78.7731 93.9853ZM100.434 86.3236L92.8788 89.5836L91.8829 87.2756L99.369 84.0454C99.9805 83.7815 100.426 83.4762 100.705 83.1295C100.991 82.7799 101.144 82.402 101.164 81.9957C101.181 81.5828 101.095 81.1594 100.908 80.7254C100.724 80.298 100.466 79.9451 100.135 79.6666C99.8084 79.3787 99.4173 79.2043 98.962 79.1434C98.5105 79.073 98.0085 79.157 97.4562 79.3954L94.8424 80.5232L100.039 92.5661L97.0799 93.8429L90.8834 79.4821L96.4462 77.0818C97.5772 76.5938 98.6303 76.3772 99.6056 76.4322C100.587 76.4843 101.447 76.7685 102.185 77.2848C102.922 77.8012 103.487 78.513 103.878 79.4204C104.29 80.3739 104.419 81.289 104.267 82.1658C104.122 83.0397 103.723 83.832 103.07 84.5426C102.424 85.2504 101.545 85.8441 100.434 86.3236ZM101.325 86.8983L102.321 89.2062L94.2236 92.7003L93.2277 90.3923L101.325 86.8983ZM109.87 71.2895L111.332 89.1558L109.221 90.0666L107.759 72.2003L109.87 71.2895ZM122.509 78.9979L122.114 70.382L124.432 69.3819L124.874 81.8498L122.961 82.6754L114.213 73.7909L116.531 72.7908L122.509 78.9979ZM115.851 73.0845L120.456 83.7564L117.615 84.9821L113.01 74.3102L115.851 73.0845ZM127.449 80.739L122.844 70.0671L125.684 68.8414L130.289 79.5133L127.449 80.739ZM134.976 67.8156L135.657 69.3937L129.571 72.0196L129.001 70.6979L130.719 66.9262C130.866 66.5976 130.973 66.3021 131.039 66.0396C131.102 65.7705 131.136 65.5414 131.14 65.3524C131.148 65.1539 131.129 65.0021 131.084 64.8969C130.973 64.6405 130.802 64.4688 130.569 64.3819C130.343 64.2922 130.073 64.3155 129.757 64.4516C129.395 64.6077 129.171 64.8372 129.083 65.1402C128.999 65.4338 129.022 65.7319 129.153 66.0343L127.151 66.8983C126.938 66.4051 126.865 65.9022 126.933 65.3896C127 64.8769 127.205 64.4025 127.547 63.9662C127.886 63.5234 128.365 63.1687 128.983 62.902C129.627 62.6239 130.219 62.4856 130.758 62.4871C131.294 62.4821 131.758 62.6093 132.151 62.8688C132.55 63.1255 132.861 63.5102 133.082 64.0231C133.247 64.4045 133.317 64.7837 133.292 65.1609C133.268 65.538 133.163 65.9459 132.978 66.3846C132.793 66.8232 132.538 67.335 132.213 67.9197L131.514 69.3094L134.976 67.8156Z" fill="white"/>
</svg>
