<svg width="94" height="94" viewBox="0 0 94 94" fill="none" xmlns="http://www.w3.org/2000/svg">
<path d="M20.1206 65.75L13.8706 80.2812L28.4019 74.0312C25.1206 71.6875 22.3081 68.875 20.1206 65.75Z" fill="#FFCE31"/>
<path d="M73.875 28.2512L80.125 13.72L65.75 19.97C68.875 22.3137 71.6875 25.1262 73.875 28.2512Z" fill="#FFCE31"/>
<path d="M14.8125 41.2173L0.125 46.9985L14.8125 52.7798C14.3438 50.9048 14.1875 49.0298 14.1875 46.9985C14.1875 44.9673 14.3438 43.0923 14.8125 41.2173Z" fill="#FFCE31"/>
<path d="M79.1897 52.7798L93.8772 46.9985L79.1897 41.2173C79.5022 43.0923 79.8147 45.1235 79.8147 46.9985C79.8147 49.0298 79.6584 50.9048 79.1897 52.7798Z" fill="#FFCE31"/>
<path d="M28.2544 20.1238L13.7231 13.8738L19.9731 28.405C22.3169 25.1238 25.1294 22.3113 28.2544 20.1238Z" fill="#FFCE31"/>
<path d="M65.75 73.8774L80.2812 80.1274L74.0312 65.5962C71.6875 68.8774 68.875 71.6899 65.75 73.8774Z" fill="#FFCE31"/>
<path d="M52.7769 14.8125L46.9956 0.125L41.2144 14.8125C43.0894 14.5 45.1206 14.1875 46.9956 14.1875C48.8706 14.1875 50.9019 14.3438 52.7769 14.8125Z" fill="#FFCE31"/>
<path d="M41.2144 79.1851L46.9956 93.8726L52.7769 79.1851C50.9019 79.6538 49.0269 79.8101 46.9956 79.8101C44.9644 79.8101 43.0894 79.6538 41.2144 79.1851Z" fill="#FFCE31"/>
<path d="M47 76.6875C63.396 76.6875 76.6875 63.396 76.6875 47C76.6875 30.604 63.396 17.3125 47 17.3125C30.604 17.3125 17.3125 30.604 17.3125 47C17.3125 63.396 30.604 76.6875 47 76.6875Z" fill="#FFCE31"/>
</svg>
