<svg width="100" height="100" viewBox="0 0 100 100" fill="none" xmlns="http://www.w3.org/2000/svg">
<g clip-path="url(#clip0_5108_4381)">
<path fill-rule="evenodd" clip-rule="evenodd" d="M50 3.125C48.75 3.125 47.6562 4.21875 47.6562 5.46875V16.25L41.0938 9.6875C40.1562 8.75 38.75 8.75 37.8125 9.6875C36.875 10.625 36.875 12.0312 37.8125 12.9688L47.6562 22.8125V30.1562L43.75 26.25C42.8125 25.3125 41.4062 25.3125 40.4688 26.25C39.5312 27.1875 39.5312 28.5938 40.4688 29.5312L47.6562 36.7188V44.2188L33.5938 30.1562V16.25C33.5938 15 32.5 14.0625 31.25 14.0625C30 14.0625 28.9062 15.1562 28.9062 16.4062V25.625L20.3125 17.0312C19.375 16.0937 17.9687 16.0937 17.0312 17.0312C16.0937 17.9687 16.0937 19.375 17.0312 20.3125L25.625 28.9062H16.4062C15 28.9062 14.0625 29.8438 14.0625 31.25C14.0625 32.6562 15.1562 33.5938 16.4062 33.5938H30.3125L44.375 47.6562H36.875L29.6875 40.4688C28.75 39.5312 27.3438 39.5312 26.4062 40.4688C25.4688 41.4062 25.4688 42.8125 26.4062 43.75L30.3125 47.6562H22.9688L13.125 37.8125C12.1875 36.875 10.7813 36.875 9.84375 37.8125C8.90625 38.75 8.90625 40.1562 9.84375 41.0938L16.4062 47.6562H5.46875C4.21875 47.6562 3.125 48.75 3.125 50C3.125 51.25 4.21875 52.3438 5.46875 52.3438H16.25L9.6875 58.9062C8.75 59.8438 8.75 61.25 9.6875 62.1875C10.1562 62.6562 10.7813 62.8125 11.4062 62.8125C12.0312 62.8125 12.6562 62.6562 13.125 62.1875L22.9688 52.3438H30.3125L26.25 56.25C25.3125 57.1875 25.3125 58.5937 26.25 59.5312C26.7187 60 27.3438 60.1562 27.9688 60.1562C28.5938 60.1562 29.2188 60 29.6875 59.5312L36.875 52.3438H44.375L30.3125 66.4062H16.4062C15 66.4062 14.0625 67.5 14.0625 68.75C14.0625 70 15.1562 71.0938 16.4062 71.0938H25.625L17.0312 79.6875C16.0937 80.625 16.0937 82.0312 17.0312 82.9688C17.5 83.4375 18.125 83.5938 18.75 83.5938C19.375 83.5938 20 83.4375 20.4688 82.9688L29.0625 74.375V83.5938C29.0625 84.8438 30.1562 85.9375 31.4062 85.9375C32.6562 85.9375 33.75 84.8438 33.75 83.5938V69.6875L47.8125 55.625V63.125L40.4688 70.3125C39.5312 71.25 39.5312 72.6562 40.4688 73.5938C40.9375 74.0625 41.5625 74.2188 42.1875 74.2188C42.8125 74.2188 43.4375 74.0625 43.9062 73.5938L47.8125 69.6875V77.0312L37.9688 86.875C37.0312 87.8125 37.0312 89.2188 37.9688 90.1562C38.4375 90.625 39.0625 90.7812 39.6875 90.7812C40.3125 90.7812 40.9375 90.625 41.4062 90.1562L47.9688 83.5938V94.375C47.9688 95.5195 48.8857 96.5331 50 96.696V3.125Z" fill="#75D6FF"/>
<mask id="mask0_5108_4381" style="mask-type:alpha" maskUnits="userSpaceOnUse" x="0" y="0" width="100" height="100">
<path d="M32.031 93.2837L42.9685 82.0337C39.0623 81.2524 35.4685 79.6899 32.1873 77.5024L32.031 93.2837Z" fill="#FFE62E"/>
<path d="M67.9685 6.71997L57.031 17.97C60.9373 18.7512 64.531 20.3137 67.8123 22.5012L67.9685 6.71997Z" fill="#FFE62E"/>
<path d="M6.71411 67.9688L22.4954 67.8125C20.3079 64.5313 18.7454 60.9375 17.9641 57.0312L6.71411 67.9688Z" fill="#FFE62E"/>
<path d="M93.2722 32.0312L77.491 32.1875C79.5222 35.4688 81.0847 39.0625 82.0222 42.9688L93.2722 32.0312Z" fill="#FFE62E"/>
<path d="M6.71411 32.0312L17.9641 42.9688C18.7454 39.0625 20.3079 35.4688 22.4954 32.1875L6.71411 32.0312Z" fill="#FFE62E"/>
<path d="M93.2722 67.9688L82.0222 57.0312C81.241 60.9375 79.6785 64.5313 77.491 67.8125L93.2722 67.9688Z" fill="#FFE62E"/>
<path d="M32.031 6.71997L32.1873 22.5012C35.4685 20.47 39.0623 18.9075 42.9685 17.97L32.031 6.71997Z" fill="#FFE62E"/>
<path d="M67.9685 93.2837L67.8123 77.5024C64.531 79.6899 60.9373 81.2524 57.031 82.0337L67.9685 93.2837Z" fill="#FFE62E"/>
<path d="M23.1206 68.75L16.8706 83.2812L31.4019 77.0312C28.1206 74.6875 25.3081 71.875 23.1206 68.75Z" fill="#FFCE31"/>
<path d="M76.875 31.249L83.125 16.7178L68.75 22.9678C71.875 25.3115 74.6875 28.124 76.875 31.249Z" fill="#FFCE31"/>
<path d="M17.8125 44.2197L3.125 50.001L17.8125 55.7822C17.3438 53.9072 17.1875 52.0322 17.1875 50.001C17.1875 47.9697 17.3438 46.0947 17.8125 44.2197Z" fill="#FFCE31"/>
<path d="M82.1897 55.7822L96.8772 50.001L82.1897 44.2197C82.5022 46.0947 82.8147 48.126 82.8147 50.001C82.8147 52.0322 82.6584 53.9072 82.1897 55.7822Z" fill="#FFCE31"/>
<path d="M31.2544 23.126L16.7231 16.876L22.9731 31.4072C25.3169 28.126 28.1294 25.3135 31.2544 23.126Z" fill="#FFCE31"/>
<path d="M68.75 76.8755L83.2812 83.1255L77.0312 68.5942C74.6875 71.8755 71.875 74.688 68.75 76.8755Z" fill="#FFCE31"/>
<path d="M55.7769 17.8125L49.9956 3.125L44.2144 17.8125C46.0894 17.5 48.1206 17.1875 49.9956 17.1875C51.8706 17.1875 53.9019 17.3438 55.7769 17.8125Z" fill="#FFCE31"/>
<path d="M44.2144 82.187L49.9956 96.8745L55.7769 82.187C53.9019 82.6558 52.0269 82.812 49.9956 82.812C47.9644 82.812 46.0894 82.6558 44.2144 82.187Z" fill="#FFCE31"/>
<path d="M50 79.6875C66.396 79.6875 79.6875 66.396 79.6875 50C79.6875 33.604 66.396 20.3125 50 20.3125C33.604 20.3125 20.3125 33.604 20.3125 50C20.3125 66.396 33.604 79.6875 50 79.6875Z" fill="#FFCE31"/>
</mask>
<g mask="url(#mask0_5108_4381)">
<rect x="50" width="50" height="100" fill="#C4C4C4"/>
<rect x="50" width="50" height="100" fill="#FFCE31"/>
</g>
</g>
<defs>
<clipPath id="clip0_5108_4381">
<rect width="100" height="100" fill="white"/>
</clipPath>
</defs>
</svg>
