<svg width="106" height="56" viewBox="0 0 106 56" fill="none" xmlns="http://www.w3.org/2000/svg">
<path d="M1 9.59091L19 1V46.4091L1 55V9.59091Z" fill="white"/>
<path d="M3 12L17 5V42L3 49V12Z" fill="#C4C4C4"/>
<path d="M3 12L17 5V42L3 49V12Z" fill="url(#paint0_linear_5121_4301)" fill-opacity="0.71"/>
<path d="M0.5 9.55836C0.5 9.36092 0.616188 9.18197 0.796546 9.10163L18.7965 1.08345C19.1272 0.936143 19.5 1.17817 19.5 1.54018V46.4416C19.5 46.6391 19.3838 46.818 19.2035 46.8984L1.20345 54.9166C0.872768 55.0639 0.5 54.8218 0.5 54.4598V9.55836Z" stroke="#C4C4C4"/>
<rect x="1.5" y="8.5" width="104" height="47" rx="0.5" fill="white"/>
<rect x="6" y="13" width="20" height="38" fill="url(#paint1_linear_5121_4301)" fill-opacity="0.71"/>
<rect x="31" y="13" width="20" height="38" fill="url(#paint2_linear_5121_4301)" fill-opacity="0.71"/>
<rect x="56" y="13" width="20" height="38" fill="url(#paint3_linear_5121_4301)" fill-opacity="0.71"/>
<rect x="81" y="13" width="20" height="38" fill="url(#paint4_linear_5121_4301)" fill-opacity="0.71"/>
<rect x="1.5" y="8.5" width="104" height="47" rx="0.5" stroke="#C4C4C4"/>
<defs>
<linearGradient id="paint0_linear_5121_4301" x1="3" y1="49" x2="31.8915" y2="34.3324" gradientUnits="userSpaceOnUse">
<stop offset="0.545214" stop-color="#1BB2DE"/>
<stop offset="1" stop-color="#1BB2DE" stop-opacity="0.4"/>
</linearGradient>
<linearGradient id="paint1_linear_5121_4301" x1="6" y1="51" x2="36.4427" y2="25.4351" gradientUnits="userSpaceOnUse">
<stop offset="0.545214" stop-color="#1BB2DE"/>
<stop offset="1" stop-color="#1BB2DE" stop-opacity="0.4"/>
</linearGradient>
<linearGradient id="paint2_linear_5121_4301" x1="31" y1="51" x2="61.4427" y2="25.4351" gradientUnits="userSpaceOnUse">
<stop offset="0.545214" stop-color="#1BB2DE"/>
<stop offset="1" stop-color="#1BB2DE" stop-opacity="0.4"/>
</linearGradient>
<linearGradient id="paint3_linear_5121_4301" x1="56" y1="51" x2="86.4427" y2="25.4351" gradientUnits="userSpaceOnUse">
<stop offset="0.545214" stop-color="#1BB2DE"/>
<stop offset="1" stop-color="#1BB2DE" stop-opacity="0.4"/>
</linearGradient>
<linearGradient id="paint4_linear_5121_4301" x1="81" y1="51" x2="111.443" y2="25.4351" gradientUnits="userSpaceOnUse">
<stop offset="0.545214" stop-color="#1BB2DE"/>
<stop offset="1" stop-color="#1BB2DE" stop-opacity="0.4"/>
</linearGradient>
</defs>
</svg>
