<svg width="120" height="52" viewBox="0 0 120 52" fill="none" xmlns="http://www.w3.org/2000/svg">
<rect width="120" height="52" fill="white"/>
<path d="M4 18.1213H20V48.0607H4V18.1213Z" fill="url(#paint0_linear_5121_4264)" fill-opacity="0.71"/>
<path d="M24 18.1213H40V48.0607H24V18.1213Z" fill="url(#paint1_linear_5121_4264)" fill-opacity="0.71"/>
<rect x="0.5" y="14.6819" width="43" height="36.8182" rx="0.5" stroke="#C4C4C4"/>
<path d="M80 3.93945H96V33.8788H80V3.93945Z" fill="url(#paint2_linear_5121_4264)" fill-opacity="0.71"/>
<path d="M100 3.93945H116V33.8788H100V3.93945Z" fill="url(#paint3_linear_5121_4264)" fill-opacity="0.71"/>
<rect x="76.5" y="0.5" width="43" height="36.8182" rx="0.5" stroke="#C4C4C4"/>
<path d="M46.3999 16.5454L57.5999 11.0303V40.1818L46.3999 45.6969V16.5454Z" fill="#C4C4C4"/>
<path d="M46.3999 16.5454L57.5999 11.0303V40.1818L46.3999 45.6969V16.5454Z" fill="url(#paint4_linear_5121_4264)" fill-opacity="0.71"/>
<path d="M62.3999 9.4546L73.5999 3.93945V33.091L62.3999 38.6061V9.4546Z" fill="#C4C4C4"/>
<path d="M62.3999 9.4546L73.5999 3.93945V33.091L62.3999 38.6061V9.4546Z" fill="url(#paint5_linear_5121_4264)" fill-opacity="0.71"/>
<path fill-rule="evenodd" clip-rule="evenodd" d="M59.2 8.30439L44.8 14.6217L44.8 49.9986L59.2 43.6813L59.2 8.30439ZM44.4745 13.902C44.1859 14.0286 44 14.3106 44 14.6217V49.9986C44 50.5691 44.5964 50.9505 45.1255 50.7183L59.5255 44.401C59.8141 44.2744 60 43.9924 60 43.6813V8.30439C60 7.73395 59.4036 7.35257 58.8745 7.58469L44.4745 13.902Z" fill="#C4C4C4"/>
<path fill-rule="evenodd" clip-rule="evenodd" d="M75.2 1.21357L60.8 7.53093L60.8 42.9078L75.2 36.5905L75.2 1.21357ZM60.4745 6.81123C60.1859 6.93782 60 7.21981 60 7.53093V42.9078C60 43.4783 60.5964 43.8597 61.1255 43.6275L75.5255 37.3102C75.8141 37.1836 76 36.9016 76 36.5905V1.21357C76 0.643132 75.4036 0.261753 74.8745 0.493871L60.4745 6.81123Z" fill="#C4C4C4"/>
<defs>
<linearGradient id="paint0_linear_5121_4264" x1="4" y1="48.0607" x2="28.0458" y2="27.5571" gradientUnits="userSpaceOnUse">
<stop offset="0.545214" stop-color="#1BB2DE"/>
<stop offset="1" stop-color="#1BB2DE" stop-opacity="0.4"/>
</linearGradient>
<linearGradient id="paint1_linear_5121_4264" x1="24" y1="48.0607" x2="48.0458" y2="27.5571" gradientUnits="userSpaceOnUse">
<stop offset="0.545214" stop-color="#1BB2DE"/>
<stop offset="1" stop-color="#1BB2DE" stop-opacity="0.4"/>
</linearGradient>
<linearGradient id="paint2_linear_5121_4264" x1="80" y1="33.8788" x2="104.046" y2="13.3752" gradientUnits="userSpaceOnUse">
<stop offset="0.545214" stop-color="#1BB2DE"/>
<stop offset="1" stop-color="#1BB2DE" stop-opacity="0.4"/>
</linearGradient>
<linearGradient id="paint3_linear_5121_4264" x1="100" y1="33.8788" x2="124.046" y2="13.3752" gradientUnits="userSpaceOnUse">
<stop offset="0.545214" stop-color="#1BB2DE"/>
<stop offset="1" stop-color="#1BB2DE" stop-opacity="0.4"/>
</linearGradient>
<linearGradient id="paint4_linear_5121_4264" x1="46.3999" y1="45.6969" x2="69.3671" y2="33.8575" gradientUnits="userSpaceOnUse">
<stop offset="0.545214" stop-color="#1BB2DE"/>
<stop offset="1" stop-color="#1BB2DE" stop-opacity="0.4"/>
</linearGradient>
<linearGradient id="paint5_linear_5121_4264" x1="62.3999" y1="38.6061" x2="85.3671" y2="26.7667" gradientUnits="userSpaceOnUse">
<stop offset="0.545214" stop-color="#1BB2DE"/>
<stop offset="1" stop-color="#1BB2DE" stop-opacity="0.4"/>
</linearGradient>
</defs>
</svg>
